<svg width="137" height="40" viewBox="0 0 137 40" fill="none" xmlns="http://www.w3.org/2000/svg">
  <rect x="0" y="0" width="40" height="40" rx="8" fill="#FF7000"/>
  <path d="M10.4544 8C9.35127 9.58314 10.4469 13.7688 10.6867 15.6667L11.616 15.4343C11.3575 13.3893 11.5995 9.67624 10.4544 8Z" fill="white"/>
  <path d="M13.4749 8.23242L11.8486 15.4344L12.7779 15.6668L14.1719 8.46475L13.4749 8.23242Z" fill="white"/>
  <path d="M6.73719 9.16152L9.29274 15.8989L4.8786 10.5555L3.94931 10.7878L8.36345 16.8282L2.09072 12.8787L1.8584 13.808L8.13113 17.7575L9.29274 15.8989L10.4544 15.6666L7.66648 8.9292L6.73719 9.16152Z" fill="white"/>
  <path d="M16.4946 9.16162L13.0098 15.899C14.6305 16.1443 17.593 10.4157 16.4946 9.16162Z" fill="white"/>
  <path d="M14.1719 16.8281C16.2618 16.3875 18.783 13.184 19.98 11.4847C18.0305 11.3214 14.6726 15.044 14.1719 16.8281Z" fill="white"/>
  <path d="M0.697167 15.8989L0.464844 16.5959C2.42969 17.6271 5.44778 18.5854 7.66686 18.6868C7.06542 16.9572 2.3803 16.2473 0.697167 15.8989Z" fill="white"/>
  <path d="M0 19.1514V20.0807H7.43434V19.1514H0Z" fill="white"/>
  <path d="M15.5664 20.0809L23.0007 19.8485V19.3839C21.5257 18.9479 16.1212 18.4093 15.5664 20.0809Z" fill="white"/>
  <path d="M15.334 20.5454C15.937 22.2783 20.6226 22.9854 22.3037 23.3333L22.536 23.101V22.6363C20.5585 21.5984 17.5672 20.6428 15.334 20.5454Z" fill="white"/>
  <path d="M15.1014 21.4746L14.6367 22.4039L20.9094 26.3534L21.1418 25.4241L15.1014 21.4746Z" fill="white"/>
  <path d="M3.25293 27.7477L3.48525 27.98L9.06101 23.1013C7.56404 21.7257 3.87688 26.4098 3.25293 27.7477Z" fill="white"/>
  <path d="M15.3334 30.3031H16.2627L13.7072 23.101H13.9395C14.8923 24.9475 16.9246 27.7752 18.8183 28.6768L19.0506 28.4445C18.2992 26.7585 16.4896 24.3427 15.0339 23.1849C14.4132 22.6913 13.2379 22.8027 12.9424 23.6564C12.4179 25.1723 14.9044 28.7351 15.3334 30.3031Z" fill="white"/>
  <path d="M9.06084 23.1011C8.41159 24.6605 5.23399 28.6991 6.50529 30.0708L9.99014 23.3334L9.06084 23.1011Z" fill="white"/>
  <path d="M10.2222 23.5659L9.06055 31.0003C11.1946 30.376 10.0117 25.4405 11.6161 24.0306C11.6161 25.5174 11.4009 30.5296 13.01 31.0003C13.009 29.5048 13.3122 25.1191 12.3066 23.9906C11.899 23.5332 10.7877 23.6273 10.2222 23.5659Z" fill="white"/>

  <path d="M50 20.5C50 19.6716 50.6716 19 51.5 19H134.5C135.328 19 136 19.6716 136 20.5C136 21.3284 135.328 22 134.5 22H51.5C50.6716 22 50 21.3284 50 20.5Z" fill="#FF7000"/>

  <path d="M55 15V26H57V15H55ZM59.6875 26H61.6875V20.5H63.6875C66.0625 20.5 67.6875 19 67.6875 16.75C67.6875 14.5 66.0625 13 63.6875 13H59.6875V26ZM61.6875 18.75V14.75H63.6875C64.8125 14.75 65.6875 15.5 65.6875 16.75C65.6875 18 64.8125 18.75 63.6875 18.75H61.6875ZM73.0625 26.25C76.0625 26.25 78.3125 24 78.3125 21C78.3125 18 76.0625 15.75 73.0625 15.75C70.0625 15.75 67.8125 18 67.8125 21C67.8125 24 70.0625 26.25 73.0625 26.25ZM73.0625 24.5C71.0625 24.5 69.5625 23 69.5625 21C69.5625 19 71.0625 17.5 73.0625 17.5C75.0625 17.5 76.5625 19 76.5625 21C76.5625 23 75.0625 24.5 73.0625 24.5ZM80.0625 26H81.8125V20.5C81.8125 18.75 83.0625 17.5 84.8125 17.5C85.0625 17.5 85.3125 17.5 85.5625 17.5V15.75C85.3125 15.75 85.0625 15.75 84.8125 15.75C83.5625 15.75 82.3125 16.5 81.8125 17.75H81.5625V16H80.0625V26ZM87.0625 26H88.8125V16H87.0625V26ZM87.9375 14.5C88.6875 14.5 89.3125 13.875 89.3125 13.125C89.3125 12.375 88.6875 11.75 87.9375 11.75C87.1875 11.75 86.5625 12.375 86.5625 13.125C86.5625 13.875 87.1875 14.5 87.9375 14.5ZM91.0625 26H92.8125V20.5C92.8125 18.75 94.0625 17.5 95.8125 17.5C97.5625 17.5 98.5625 18.5 98.5625 20.25V26H100.312V19.75C100.312 17.25 98.5625 15.75 96.3125 15.75C94.8125 15.75 93.5625 16.5 92.8125 17.75H92.5625V16H91.0625V26ZM102.562 26H104.312V20.5C104.312 18.75 105.562 17.5 107.312 17.5C109.062 17.5 110.062 18.5 110.062 20.25V26H111.812V19.75C111.812 17.25 110.062 15.75 107.812 15.75C106.312 15.75 105.062 16.5 104.312 17.75H104.062V12H102.562V26ZM119.062 26.25C121.562 26.25 123.562 24.75 124.062 22.5H122.312C121.812 23.75 120.562 24.5 119.062 24.5C117.062 24.5 115.562 23 115.562 21C115.562 19 117.062 17.5 119.062 17.5C120.562 17.5 121.812 18.25 122.312 19.5H124.062C123.562 17.25 121.562 15.75 119.062 15.75C116.062 15.75 113.812 18 113.812 21C113.812 24 116.062 26.25 119.062 26.25ZM130.062 26.25C133.062 26.25 135.312 24 135.312 21C135.312 18 133.062 15.75 130.062 15.75C127.062 15.75 124.812 18 124.812 21C124.812 24 127.062 26.25 130.062 26.25ZM130.062 24.5C128.062 24.5 126.562 23 126.562 21C126.562 19 128.062 17.5 130.062 17.5C132.062 17.5 133.562 19 133.562 21C133.562 23 132.062 24.5 130.062 24.5Z" fill="#FF7000"/>
</svg>
