<svg width="40" height="40" viewBox="0 0 40 40" fill="none" xmlns="http://www.w3.org/2000/svg">
  <rect width="40" height="40" rx="8" fill="#FF7000"/>
  <path d="M10.4544 8C9.35127 9.58314 10.4469 13.7688 10.6867 15.6667L11.616 15.4343C11.3575 13.3893 11.5995 9.67624 10.4544 8Z" fill="white"/>
  <path d="M13.4749 8.23242L11.8486 15.4344L12.7779 15.6668L14.1719 8.46475L13.4749 8.23242Z" fill="white"/>
  <path d="M6.73719 9.16152L9.29274 15.8989L4.8786 10.5555L3.94931 10.7878L8.36345 16.8282L2.09072 12.8787L1.8584 13.808L8.13113 17.7575L9.29274 15.8989L10.4544 15.6666L7.66648 8.9292L6.73719 9.16152Z" fill="white"/>
  <path d="M16.4946 9.16162L13.0098 15.899C14.6305 16.1443 17.593 10.4157 16.4946 9.16162Z" fill="white"/>
  <path d="M14.1719 16.8281C16.2618 16.3875 18.783 13.184 19.98 11.4847C18.0305 11.3214 14.6726 15.044 14.1719 16.8281Z" fill="white"/>
  <path d="M0.697167 15.8989L0.464844 16.5959C2.42969 17.6271 5.44778 18.5854 7.66686 18.6868C7.06542 16.9572 2.3803 16.2473 0.697167 15.8989Z" fill="white"/>
  <path d="M0 19.1514V20.0807H7.43434V19.1514H0Z" fill="white"/>
  <path d="M15.5664 20.0809L23.0007 19.8485V19.3839C21.5257 18.9479 16.1212 18.4093 15.5664 20.0809Z" fill="white"/>
  <path d="M15.334 20.5454C15.937 22.2783 20.6226 22.9854 22.3037 23.3333L22.536 23.101V22.6363C20.5585 21.5984 17.5672 20.6428 15.334 20.5454Z" fill="white"/>
  <path d="M15.1014 21.4746L14.6367 22.4039L20.9094 26.3534L21.1418 25.4241L15.1014 21.4746Z" fill="white"/>
  <path d="M3.25293 27.7477L3.48525 27.98L9.06101 23.1013C7.56404 21.7257 3.87688 26.4098 3.25293 27.7477Z" fill="white"/>
  <path d="M15.3334 30.3031H16.2627L13.7072 23.101H13.9395C14.8923 24.9475 16.9246 27.7752 18.8183 28.6768L19.0506 28.4445C18.2992 26.7585 16.4896 24.3427 15.0339 23.1849C14.4132 22.6913 13.2379 22.8027 12.9424 23.6564C12.4179 25.1723 14.9044 28.7351 15.3334 30.3031Z" fill="white"/>
  <path d="M9.06084 23.1011C8.41159 24.6605 5.23399 28.6991 6.50529 30.0708L9.99014 23.3334L9.06084 23.1011Z" fill="white"/>
  <path d="M10.2222 23.5659L9.06055 31.0003C11.1946 30.376 10.0117 25.4405 11.6161 24.0306C11.6161 25.5174 11.4009 30.5296 13.01 31.0003C13.009 29.5048 13.3122 25.1191 12.3066 23.9906C11.899 23.5332 10.7877 23.6273 10.2222 23.5659Z" fill="white"/>
</svg>
