<svg width="32" height="32" viewBox="0 0 32 32" fill="none" xmlns="http://www.w3.org/2000/svg">
  <rect width="32" height="32" rx="6" fill="#FF7000"/>
  <path d="M8.36352 6.4C7.48102 7.66651 8.35752 11.015 8.54936 12.5333L9.29281 12.3475C9.08601 10.7114 9.27961 7.74099 8.36352 6.4Z" fill="white"/>
  <path d="M10.7799 6.58594L9.47891 12.3476L10.2223 12.5334L11.3375 6.77179L10.7799 6.58594Z" fill="white"/>
  <path d="M5.38975 7.32922L7.43419 12.7191L3.90288 8.44438L3.15945 8.63022L6.69076 13.4626L1.67258 10.303L1.48672 11.0464L6.5049 14.206L7.43419 12.7191L8.36352 12.5333L6.13318 7.14336L5.38975 7.32922Z" fill="white"/>
  <path d="M13.1957 7.32929L10.4078 12.719C11.7044 12.9154 14.0747 8.33254 13.1957 7.32929Z" fill="white"/>
  <path d="M11.3375 13.4625C13.0094 13.11 15.0262 10.5472 15.984 9.18776C14.4244 9.0571 11.738 12.0352 11.3375 13.4625Z" fill="white"/>
  <path d="M0.557734 12.7191L0.371875 13.2767C1.94375 14.1017 4.35823 14.8683 6.13349 14.9494C5.65234 13.5658 1.90424 12.9978 0.557734 12.7191Z" fill="white"/>
  <path d="M0 15.3211V16.0645H5.94747V15.3211H0Z" fill="white"/>
  <path d="M12.4531 16.0647L18.4006 15.8788V15.5071C17.2206 15.1583 12.8969 14.7275 12.4531 16.0647Z" fill="white"/>
  <path d="M12.2672 16.4363C12.7496 17.8226 16.498 18.3885 17.8429 18.6667L18.0288 18.4808V18.109C16.4468 17.2787 14.0538 16.5142 12.2672 16.4363Z" fill="white"/>
  <path d="M12.0811 17.1797L11.7095 17.9231L16.7273 21.0827L16.9134 20.3393L12.0811 17.1797Z" fill="white"/>
  <path d="M2.60234 22.1982L2.7882 22.384L7.24881 18.481C6.05123 17.3806 3.10151 21.1278 2.60234 22.1982Z" fill="white"/>
  <path d="M12.2667 24.2425H13.0101L10.9658 18.481H11.1516C11.9138 19.958 13.5397 22.2202 15.0546 22.9414L15.2405 22.7556C14.6394 21.4068 13.1917 19.4742 12.0271 18.5479C11.5306 18.153 10.5903 18.2422 10.3539 18.9251C9.93432 20.1378 11.9235 22.9881 12.2667 24.2425Z" fill="white"/>
  <path d="M7.24867 18.4809C6.72927 19.7284 4.18719 22.9593 5.20423 24.0566L7.99211 18.6667L7.24867 18.4809Z" fill="white"/>
  <path d="M8.17778 18.8527L7.24844 24.8002C8.95584 24.3008 8.00934 20.3524 9.29284 19.2245C9.29284 20.4139 9.12084 24.4234 10.408 24.8002C10.4072 23.6037 10.6498 20.0951 9.84528 19.1922C9.51928 18.8263 8.63016 18.9018 8.17778 18.8527Z" fill="white"/>
</svg>
